<svg xmlns="http://www.w3.org/2000/svg" xmlns:xlink="http://www.w3.org/1999/xlink" width="64" zoomAndPan="magnify" viewBox="0 0 48 48" height="64" preserveAspectRatio="xMidYMid meet" version="1.0"><defs><clipPath id="id1"><path d="M 4.101562 7 L 43.773438 7 L 43.773438 44.003906 L 4.101562 44.003906 Z M 4.101562 7 " clip-rule="nonzero"/></clipPath><clipPath id="id2"><path d="M 10 2.859375 L 14 2.859375 L 14 11 L 10 11 Z M 10 2.859375 " clip-rule="nonzero"/></clipPath><clipPath id="id3"><path d="M 34 2.859375 L 38 2.859375 L 38 11 L 34 11 Z M 34 2.859375 " clip-rule="nonzero"/></clipPath><clipPath id="id4"><path d="M 4.101562 14 L 43.773438 14 L 43.773438 18 L 4.101562 18 Z M 4.101562 14 " clip-rule="nonzero"/></clipPath></defs><g clip-path="url(#id1)"><path fill="#000000" d="M 42.238281 44.003906 L 5.640625 44.003906 C 5.4375 44.003906 5.242188 43.964844 5.054688 43.886719 C 4.867188 43.8125 4.703125 43.699219 4.5625 43.558594 C 4.417969 43.414062 4.308594 43.25 4.230469 43.0625 C 4.152344 42.875 4.113281 42.683594 4.113281 42.480469 L 4.113281 8.957031 C 4.113281 8.753906 4.152344 8.558594 4.230469 8.375 C 4.308594 8.1875 4.417969 8.023438 4.5625 7.878906 C 4.703125 7.734375 4.867188 7.625 5.054688 7.546875 C 5.242188 7.472656 5.4375 7.433594 5.640625 7.433594 L 42.238281 7.433594 C 42.441406 7.433594 42.632812 7.472656 42.820312 7.546875 C 43.007812 7.625 43.171875 7.734375 43.316406 7.878906 C 43.457031 8.023438 43.570312 8.1875 43.648438 8.375 C 43.722656 8.558594 43.761719 8.753906 43.761719 8.957031 L 43.761719 42.480469 C 43.761719 42.683594 43.722656 42.875 43.648438 43.0625 C 43.570312 43.25 43.457031 43.414062 43.316406 43.558594 C 43.171875 43.699219 43.007812 43.8125 42.820312 43.886719 C 42.632812 43.964844 42.441406 44.003906 42.238281 44.003906 Z M 7.164062 40.957031 L 40.710938 40.957031 L 40.710938 10.480469 L 7.164062 10.480469 Z M 7.164062 40.957031 " fill-opacity="1" fill-rule="nonzero"/></g><g clip-path="url(#id2)"><path fill="#000000" d="M 11.738281 10.480469 C 11.535156 10.480469 11.34375 10.441406 11.15625 10.363281 C 10.96875 10.285156 10.804688 10.175781 10.660156 10.035156 C 10.519531 9.890625 10.40625 9.726562 10.332031 9.539062 C 10.253906 9.351562 10.214844 9.160156 10.214844 8.957031 L 10.214844 4.386719 C 10.214844 4.183594 10.253906 3.988281 10.332031 3.800781 C 10.40625 3.613281 10.519531 3.449219 10.660156 3.308594 C 10.804688 3.164062 10.96875 3.054688 11.15625 2.976562 C 11.34375 2.898438 11.535156 2.859375 11.738281 2.859375 C 11.941406 2.859375 12.136719 2.898438 12.324219 2.976562 C 12.507812 3.054688 12.675781 3.164062 12.816406 3.308594 C 12.960938 3.449219 13.070312 3.613281 13.148438 3.800781 C 13.226562 3.988281 13.265625 4.183594 13.265625 4.386719 L 13.265625 8.957031 C 13.265625 9.160156 13.226562 9.351562 13.148438 9.539062 C 13.070312 9.726562 12.960938 9.890625 12.816406 10.035156 C 12.675781 10.175781 12.507812 10.285156 12.324219 10.363281 C 12.136719 10.441406 11.941406 10.480469 11.738281 10.480469 Z M 11.738281 10.480469 " fill-opacity="1" fill-rule="nonzero"/></g><g clip-path="url(#id3)"><path fill="#000000" d="M 36.136719 10.480469 C 35.9375 10.480469 35.742188 10.441406 35.554688 10.363281 C 35.367188 10.285156 35.203125 10.175781 35.058594 10.035156 C 34.917969 9.890625 34.804688 9.726562 34.730469 9.539062 C 34.652344 9.351562 34.613281 9.160156 34.613281 8.957031 L 34.613281 4.386719 C 34.613281 4.183594 34.652344 3.988281 34.730469 3.800781 C 34.804688 3.613281 34.917969 3.449219 35.058594 3.308594 C 35.203125 3.164062 35.367188 3.054688 35.554688 2.976562 C 35.742188 2.898438 35.9375 2.859375 36.136719 2.859375 C 36.339844 2.859375 36.535156 2.898438 36.722656 2.976562 C 36.910156 3.054688 37.074219 3.164062 37.214844 3.308594 C 37.359375 3.449219 37.46875 3.613281 37.546875 3.800781 C 37.625 3.988281 37.664062 4.183594 37.664062 4.386719 L 37.664062 8.957031 C 37.664062 9.160156 37.625 9.351562 37.546875 9.539062 C 37.46875 9.726562 37.359375 9.890625 37.214844 10.035156 C 37.074219 10.175781 36.910156 10.285156 36.722656 10.363281 C 36.535156 10.441406 36.339844 10.480469 36.136719 10.480469 Z M 36.136719 10.480469 " fill-opacity="1" fill-rule="nonzero"/></g><path fill="#000000" d="M 13.265625 19.625 L 16.3125 19.625 L 16.3125 22.671875 L 13.265625 22.671875 Z M 13.265625 19.625 " fill-opacity="1" fill-rule="nonzero"/><path fill="#000000" d="M 22.414062 19.625 L 25.464844 19.625 L 25.464844 22.671875 L 22.414062 22.671875 Z M 22.414062 19.625 " fill-opacity="1" fill-rule="nonzero"/><path fill="#000000" d="M 31.5625 19.625 L 34.613281 19.625 L 34.613281 22.671875 L 31.5625 22.671875 Z M 31.5625 19.625 " fill-opacity="1" fill-rule="nonzero"/><path fill="#000000" d="M 13.265625 27.242188 L 16.3125 27.242188 L 16.3125 30.289062 L 13.265625 30.289062 Z M 13.265625 27.242188 " fill-opacity="1" fill-rule="nonzero"/><path fill="#000000" d="M 22.414062 27.242188 L 25.464844 27.242188 L 25.464844 30.289062 L 22.414062 30.289062 Z M 22.414062 27.242188 " fill-opacity="1" fill-rule="nonzero"/><path fill="#000000" d="M 31.5625 27.242188 L 34.613281 27.242188 L 34.613281 30.289062 L 31.5625 30.289062 Z M 31.5625 27.242188 " fill-opacity="1" fill-rule="nonzero"/><path fill="#000000" d="M 13.265625 34.859375 L 16.3125 34.859375 L 16.3125 37.910156 L 13.265625 37.910156 Z M 13.265625 34.859375 " fill-opacity="1" fill-rule="nonzero"/><path fill="#000000" d="M 22.414062 34.859375 L 25.464844 34.859375 L 25.464844 37.910156 L 22.414062 37.910156 Z M 22.414062 34.859375 " fill-opacity="1" fill-rule="nonzero"/><path fill="#000000" d="M 31.5625 34.859375 L 34.613281 34.859375 L 34.613281 37.910156 L 31.5625 37.910156 Z M 31.5625 34.859375 " fill-opacity="1" fill-rule="nonzero"/><g clip-path="url(#id4)"><path fill="#000000" d="M 42.238281 17.277344 L 5.640625 17.277344 C 5.4375 17.277344 5.242188 17.238281 5.054688 17.160156 C 4.867188 17.082031 4.703125 16.972656 4.5625 16.828125 C 4.417969 16.6875 4.308594 16.523438 4.230469 16.335938 C 4.152344 16.148438 4.113281 15.953125 4.113281 15.753906 C 4.113281 15.550781 4.152344 15.355469 4.230469 15.167969 C 4.308594 14.984375 4.417969 14.816406 4.5625 14.675781 C 4.703125 14.53125 4.867188 14.421875 5.054688 14.34375 C 5.242188 14.265625 5.4375 14.230469 5.640625 14.230469 L 42.238281 14.230469 C 42.441406 14.230469 42.632812 14.265625 42.820312 14.34375 C 43.007812 14.421875 43.171875 14.53125 43.316406 14.675781 C 43.457031 14.816406 43.570312 14.984375 43.648438 15.167969 C 43.722656 15.355469 43.761719 15.550781 43.761719 15.753906 C 43.761719 15.953125 43.722656 16.148438 43.648438 16.335938 C 43.570312 16.523438 43.457031 16.6875 43.316406 16.828125 C 43.171875 16.972656 43.007812 17.082031 42.820312 17.160156 C 42.632812 17.238281 42.441406 17.277344 42.238281 17.277344 Z M 42.238281 17.277344 " fill-opacity="1" fill-rule="nonzero"/></g></svg>