<svg xmlns="http://www.w3.org/2000/svg" xmlns:xlink="http://www.w3.org/1999/xlink" width="64" zoomAndPan="magnify" viewBox="0 0 48 48" height="64" preserveAspectRatio="xMidYMid meet" version="1.0"><defs><clipPath id="id1"><path d="M 4 1.609375 L 43.675781 1.609375 L 43.675781 45.6875 L 4 45.6875 Z M 4 1.609375 " clip-rule="nonzero"/></clipPath></defs><g clip-path="url(#id1)"><path fill="#000000" d="M 42.335938 18.898438 L 26.441406 2.691406 C 25.761719 1.992188 24.851562 1.609375 23.878906 1.609375 C 23.878906 1.609375 23.875 1.609375 23.875 1.609375 C 22.910156 1.609375 22 1.992188 21.320312 2.683594 L 5.34375 18.894531 C 4.308594 19.945312 4 21.519531 4.5625 22.894531 C 5.015625 24.007812 5.957031 24.804688 7.078125 25.066406 L 7.078125 42.367188 C 7.078125 44.199219 8.546875 45.6875 10.347656 45.6875 L 17.089844 45.6875 C 18.953125 45.6875 20.472656 44.144531 20.472656 42.253906 L 20.472656 30.074219 C 20.472656 29.800781 20.699219 29.566406 20.972656 29.566406 L 26.699219 29.566406 C 26.972656 29.566406 27.199219 29.800781 27.199219 30.074219 L 27.199219 42.25 C 27.199219 44.140625 28.71875 45.683594 30.582031 45.683594 L 37.320312 45.683594 C 39.121094 45.683594 40.589844 44.195312 40.589844 42.363281 L 40.589844 25.0625 C 41.710938 24.800781 42.652344 24.007812 43.105469 22.894531 C 43.675781 21.527344 43.371094 19.953125 42.335938 18.898438 Z M 7.476562 21.054688 L 23.453125 4.847656 C 23.609375 4.695312 23.789062 4.671875 23.878906 4.671875 C 23.972656 4.671875 24.152344 4.695312 24.308594 4.851562 L 40.203125 21.058594 C 40.453125 21.3125 40.390625 21.585938 40.332031 21.726562 C 40.273438 21.871094 40.125 22.105469 39.773438 22.105469 L 7.90625 22.105469 C 7.554688 22.105469 7.402344 21.871094 7.347656 21.726562 C 7.289062 21.585938 7.226562 21.308594 7.476562 21.054688 Z M 37.578125 42.367188 C 37.578125 42.507812 37.460938 42.628906 37.324219 42.628906 L 30.585938 42.628906 C 30.382812 42.628906 30.214844 42.460938 30.214844 42.253906 L 30.214844 30.074219 C 30.214844 28.109375 28.640625 26.503906 26.699219 26.503906 L 20.976562 26.503906 C 19.039062 26.503906 17.460938 28.105469 17.460938 30.074219 L 17.460938 42.25 C 17.460938 42.457031 17.292969 42.625 17.089844 42.625 L 10.351562 42.625 C 10.214844 42.625 10.097656 42.503906 10.097656 42.363281 L 10.097656 25.164062 L 37.578125 25.164062 Z M 37.578125 42.367188 " fill-opacity="1" fill-rule="nonzero"/></g></svg>